<svg width="300" height="250" viewBox="0 0 300 250" fill="none" xmlns="http://www.w3.org/2000/svg">
<g clip-path="url(#clip0_755_158)">
<mask id="path-3-inside-1_755_158" fill="white">
<path fill-rule="evenodd" clip-rule="evenodd" d="M173.061 27.0121C133.815 33.6214 107.358 70.7945 113.967 110.04L117.461 130.785C121.425 154.325 142.412 170.742 165.687 169.55C165.568 171.157 165.569 172.794 165.699 174.453L165.729 174.839C165.787 175.573 165.816 176.308 165.817 177.042C123.928 177.141 90 211.129 90 253.042H280V240.375C280 206.676 253.679 179.123 220.474 177.154L219.385 160.824L221.41 160.483C246.762 156.214 263.852 132.202 259.583 106.85L256.089 86.1056C249.48 46.8598 212.307 20.4027 173.061 27.0121Z"/>
</mask>
<path d="M113.967 110.04L114.953 109.874L113.967 110.04ZM173.061 27.0121L173.227 27.9982L173.061 27.0121ZM117.461 130.785L116.475 130.951L117.461 130.785ZM165.687 169.55L166.684 169.624L166.768 168.493L165.635 168.551L165.687 169.55ZM165.699 174.453L164.702 174.532V174.532L165.699 174.453ZM165.729 174.839L166.726 174.761V174.761L165.729 174.839ZM165.817 177.042L165.819 178.042L166.819 178.04L166.817 177.041L165.817 177.042ZM90 253.042H89V254.042H90V253.042ZM280 253.042V254.042H281V253.042H280ZM220.474 177.154L219.476 177.221L219.535 178.101L220.415 178.153L220.474 177.154ZM219.385 160.824L219.219 159.838L218.328 159.988L218.388 160.891L219.385 160.824ZM221.41 160.483L221.577 161.469H221.577L221.41 160.483ZM259.583 106.85L258.597 107.016L259.583 106.85ZM256.089 86.1056L257.075 85.9395V85.9395L256.089 86.1056ZM114.953 109.874C108.436 71.173 134.526 34.5158 173.227 27.9982L172.895 26.0259C133.104 32.727 106.28 70.4159 112.981 110.206L114.953 109.874ZM118.447 130.619L114.953 109.874L112.981 110.206L116.475 130.951L118.447 130.619ZM165.635 168.551C142.862 169.717 122.326 153.652 118.447 130.619L116.475 130.951C120.524 154.997 141.962 171.766 165.738 170.549L165.635 168.551ZM164.689 169.476C164.567 171.133 164.568 172.822 164.702 174.532L166.696 174.375C166.57 172.767 166.569 171.18 166.684 169.624L164.689 169.476ZM164.702 174.532L164.732 174.918L166.726 174.761L166.696 174.375L164.702 174.532ZM164.732 174.918C164.788 175.626 164.816 176.335 164.817 177.044L166.817 177.041C166.816 176.281 166.786 175.52 166.726 174.761L164.732 174.918ZM165.815 176.042C123.374 176.142 89 210.578 89 253.042H91C91 211.681 124.481 178.139 165.819 178.042L165.815 176.042ZM90 254.042H280V252.042H90V254.042ZM281 253.042V240.375H279V253.042H281ZM281 240.375C281 206.143 254.264 178.156 220.533 176.156L220.415 178.153C253.095 180.09 279 207.208 279 240.375H281ZM221.472 177.088L220.383 160.758L218.388 160.891L219.476 177.221L221.472 177.088ZM221.244 159.497L219.219 159.838L219.552 161.81L221.577 161.469L221.244 159.497ZM258.597 107.016C262.774 131.823 246.051 155.32 221.244 159.497L221.577 161.469C247.473 157.108 264.93 132.58 260.569 106.684L258.597 107.016ZM255.103 86.2717L258.597 107.016L260.569 106.684L257.075 85.9395L255.103 86.2717ZM173.227 27.9982C211.928 21.4805 248.585 47.5705 255.103 86.2717L257.075 85.9395C250.374 46.1491 212.685 19.3249 172.895 26.0259L173.227 27.9982Z" fill="#484848" mask="url(#path-3-inside-1_755_158)"/>
<path d="M74.6235 214.004L74.6149 213.979L74.609 213.953L67.9816 184.241C67.411 181.683 64.8517 180.091 62.3049 180.711C59.7921 181.322 58.2504 183.854 58.8616 186.367L65.0828 211.948C65.4302 213.376 64.554 214.815 63.1259 215.163C61.6977 215.51 60.2584 214.634 59.9111 213.206L52.3576 182.147C51.7993 179.852 49.4859 178.443 47.1904 179.002C44.8949 179.56 43.4866 181.873 44.0449 184.169L51.7024 215.655C51.9626 216.725 51.3061 217.803 50.2362 218.063C49.1816 218.32 48.1156 217.686 47.8376 216.637L40.7878 190.026C40.2234 187.895 38.0585 186.608 35.9169 187.128C33.7126 187.665 32.3788 189.907 32.9597 192.1L40.0936 219.027C40.2976 219.797 39.8805 220.596 39.1319 220.869C38.2957 221.173 37.3762 220.708 37.1268 219.853L33.0685 205.949C32.4463 203.818 30.2576 202.553 28.1 203.077C25.8711 203.619 24.5037 205.866 25.0458 208.095L32.8385 240.137C36.6806 255.934 52.6018 265.626 68.3995 261.784C80.5589 258.827 89.5198 248.506 90.7405 236.052L93.5853 207.029C93.7944 204.896 92.5078 202.9 90.4789 202.209C88.1583 201.419 85.6248 202.581 84.709 204.855L80.9526 214.182C79.7823 217.088 75.6285 216.972 74.6235 214.004Z" stroke="#484848"/>
</g>
<rect x="0.5" y="0.5" width="299" height="249" stroke="#484848" stroke-dasharray="20 10"/>
<defs>
<clipPath id="clip0_755_158">
<rect width="300" height="250" fill="white"/>
</clipPath>
</defs>
</svg>
